<?xml version="1.0" encoding="UTF-8"?>
<svg version="1.1" xmlns="http://www.w3.org/2000/svg" width="2000" height="2000">
<path d="M0 0 C660 0 1320 0 2000 0 C2000 660 2000 1320 2000 2000 C1340 2000 680 2000 0 2000 C0 1340 0 680 0 0 Z " fill="#FEFEFE" transform="translate(0,0)"/>
<path d="M0 0 C23.76 0 47.52 0 72 0 C75.29657224 7.91177338 78.52448802 15.81609477 81.59765625 23.8125 C82.02443665 24.91910477 82.45121704 26.02570953 82.89093018 27.16584778 C84.28301889 30.77663081 85.67278254 34.38830374 87.0625 38 C88.04355446 40.54658739 89.02509476 43.09298746 90.0065918 45.6394043 C93.00705986 53.42524419 96.00398805 61.21244447 99 69 C99.4544751 70.18128479 99.9089502 71.36256958 100.37719727 72.57965088 C101.6838742 75.97623241 102.99041309 79.372867 104.296875 82.76953125 C104.71716476 83.8622081 105.13745453 84.95488495 105.57048035 86.08067322 C107.6366441 91.4529191 109.70174017 96.82557149 111.76489258 102.19897461 C115.82970166 112.78219873 119.9121585 123.35812817 124.02734375 133.921875 C125.22035073 136.98945989 126.41308644 140.05715015 127.60580444 143.12484741 C128.72481923 145.9978499 129.8492571 148.86868992 130.97387695 151.73950195 C131.64430813 153.46295026 132.31448924 155.18649587 132.984375 156.91015625 C133.29265732 157.69183167 133.60093964 158.47350708 133.91856384 159.27886963 C135.09722535 162.32536323 136 164.70322999 136 168 C136.66 168 137.32 168 138 168 C138.17056412 167.40021332 138.34112823 166.80042664 138.51686096 166.1824646 C140.37078632 159.81708106 142.56019237 153.65250069 144.96484375 147.4765625 C145.34979004 146.47878784 145.73473633 145.48101318 146.13134766 144.45300293 C147.39662302 141.17566002 148.66706481 137.9003458 149.9375 134.625 C150.83640274 132.29946474 151.73491452 129.97377834 152.63305664 127.64794922 C154.497418 122.82072982 156.36345732 117.99416375 158.23046875 113.16796875 C160.84034925 106.41774472 163.43824343 99.66297138 166.03125 92.90625 C177.93133837 61.90218947 189.94763706 30.94525619 202 0 C225.76 0 249.52 0 274 0 C274.97795799 2.93387398 275.29761253 5.32639319 275.5690918 8.39599609 C275.72050125 10.07807915 275.72050125 10.07807915 275.87496948 11.79414368 C275.98197174 13.02481064 276.088974 14.2554776 276.19921875 15.5234375 C276.31443878 16.81626144 276.42965881 18.10908539 276.54837036 19.44108582 C276.86557795 23.00205696 277.17817221 26.56342025 277.48999405 30.12486649 C277.75625912 33.15835461 278.0254269 36.19158222 278.29465389 39.22480869 C279.68888714 54.93319743 281.05923505 70.64363583 282.4140625 86.35546875 C282.52963085 87.69525205 282.64520603 89.03503476 282.76078796 90.37481689 C282.81819562 91.04028534 282.87560328 91.70575378 282.93475056 92.39138794 C283.16824651 95.0977962 283.40180953 97.80419867 283.63541794 100.51059723 C283.75376725 101.88194602 283.87206584 103.2532992 283.99031448 104.62465668 C286.86848452 137.99618121 289.94580317 171.34925712 293.03033352 204.70224667 C293.7531273 212.52086907 294.47229271 220.33982051 295.18864536 228.15903568 C295.64965074 233.18992698 296.11271585 238.22061489 296.57946777 243.25097656 C297.05895071 248.42088776 297.53288845 253.59128179 298.00315475 258.76203918 C298.18056589 260.70279726 298.35982907 262.6433871 298.54112625 264.58378601 C298.79212591 267.27351693 299.03622431 269.96379565 299.27880859 272.65429688 C299.38919527 273.81144699 299.38919527 273.81144699 299.50181198 274.99197388 C300.06796255 281.40023675 300 287.48479276 300 294 C277.89 294 255.78 294 233 294 C229.55585319 253.16225921 226.20202579 212.32480013 223.10627079 171.45959473 C222.86186765 168.23437851 222.61676183 165.0092158 222.37169456 161.78404999 C222.20505285 159.58480763 222.03986479 157.38545978 221.87483215 155.18609619 C221.39180675 148.79361776 220.88129207 142.41020342 220.18612671 136.03674316 C219.89082165 132.8052856 219.90568652 129.61997471 219.9375 126.375 C219.94652344 125.16585937 219.95554687 123.95671875 219.96484375 122.7109375 C219.98224609 121.36902344 219.98224609 121.36902344 220 120 C219.01 120 218.02 120 217 120 C216.82304596 120.67682327 216.64609192 121.35364655 216.46377563 122.05097961 C214.74603276 128.50039189 212.79333185 134.80845939 210.5859375 141.10546875 C210.25946732 142.04585999 209.93299713 142.98625122 209.59663391 143.95513916 C208.52649343 147.03390829 207.45086944 150.11072863 206.375 153.1875 C205.61154897 155.37957388 204.84828755 157.57171381 204.08520508 159.76391602 C198.66813114 175.30737516 193.17200508 190.82236043 187.65859985 206.33184814 C181.59675398 223.39327457 175.64311662 240.4911476 169.73740005 257.60710526 C169.06726149 259.5487045 168.39642771 261.49006232 167.72543335 263.43136597 C166.47232194 267.05896367 165.22196337 270.68749687 163.97265625 274.31640625 C163.41292618 275.93653122 163.41292618 275.93653122 162.84188843 277.58938599 C162.4958255 278.59701996 162.14976257 279.60465393 161.79321289 280.64282227 C161.49363174 281.51286392 161.1940506 282.38290558 160.88539124 283.27931213 C159.83944466 286.49336491 158.92854682 289.75008612 158 293 C144.47 293 130.94 293 117 293 C107.94677736 267.14698277 98.90960697 241.28848613 89.89111328 215.42333984 C87.07249986 207.33975212 84.25252146 199.25664057 81.43264771 191.17349243 C80.50705341 188.52021903 79.58151914 185.8669247 78.65600586 183.21362305 C75.71396433 174.77931727 72.77159291 166.34512689 69.82830811 157.91125488 C68.43060035 153.90612367 67.0330431 149.90093994 65.63549805 145.89575195 C64.96614003 143.97759407 64.29670741 142.05946221 63.62719727 140.14135742 C62.70179968 137.49013648 61.77665386 134.83882781 60.8515625 132.1875 C60.57627716 131.39903687 60.30099182 130.61057373 60.0173645 129.79821777 C58.99599771 126.87034038 57.9806089 123.9418267 57 121 C56.34 120.67 55.68 120.34 55 120 C54.94054199 120.89001709 54.88108398 121.78003418 54.81982422 122.69702148 C53.01987788 149.33655882 50.88166898 175.94398533 48.66830444 202.55163574 C46.73426353 225.80581162 44.89113735 249.0634296 43.20532227 272.3371582 C43.12994232 273.36471222 43.05456238 274.39226624 42.97689819 275.45095825 C42.83881467 277.33487502 42.70297627 279.21895846 42.56997681 281.10324097 C42.47865982 282.34510666 42.47865982 282.34510666 42.38549805 283.61206055 C42.33475632 284.32009323 42.28401459 285.02812592 42.23173523 285.75761414 C41.94617179 288.52086862 41.45669559 291.25982647 41 294 C18.89 294 -3.22 294 -26 294 C-26 283.87509652 -26 283.87509652 -25.65400696 280.15647888 C-25.57710255 279.30802084 -25.50019814 278.4595628 -25.42096329 277.58539391 C-25.3352998 276.68637163 -25.24963631 275.78734936 -25.16137695 274.86108398 C-25.07177074 273.88543299 -24.98216454 272.90978199 -24.88984299 271.90456581 C-24.59317873 268.68470527 -24.29072816 265.46541582 -23.98828125 262.24609375 C-23.77732564 259.96792551 -23.56675706 257.68972139 -23.35655212 255.41148376 C-22.91070089 250.58707333 -22.46239709 245.76289989 -22.01208496 240.93890381 C-21.30889271 233.40512933 -20.61132992 225.87084087 -19.91503906 218.33642578 C-19.68393494 215.83618113 -19.45282534 213.33593699 -19.22171021 210.83569336 C-19.10822361 209.60790161 -18.99473701 208.38010986 -18.87781143 207.1151123 C-18.53620646 203.42151169 -18.19407249 199.72796043 -17.85177612 196.03442383 C-16.28746993 179.15057969 -14.74581699 162.26506112 -13.25 145.375 C-13.15813416 144.33891602 -13.06626831 143.30283203 -12.97161865 142.23535156 C-12.6051728 138.10206856 -12.23886798 133.96877325 -11.87322998 129.8354187 C-11.15828241 121.76079553 -10.43403505 113.68702225 -9.70724297 105.61345863 C-9.1822787 99.78170071 -8.65788717 93.94989123 -8.13355637 88.11807632 C-8.00360559 86.67273904 -7.87363402 85.22740363 -7.7436409 83.78207016 C-6.38701845 68.69585063 -5.03968485 53.60909495 -3.765625 38.515625 C-3.62508446 36.85117088 -3.62508446 36.85117088 -3.48170471 35.15309143 C-3.0515388 30.0457054 -2.62536659 24.93802206 -2.20483398 19.82983398 C-2.05713159 18.05712868 -1.90942667 16.28442359 -1.76171875 14.51171875 C-1.69845398 13.72754578 -1.63518921 12.9433728 -1.57000732 12.13543701 C-1.22569199 8.02426868 -0.68057729 4.08346375 0 0 Z " fill="#000000" transform="translate(172,882)"/>
<path d="M0 0 C1.33353528 -0.00483667 1.33353528 -0.00483667 2.69401067 -0.00977105 C4.17588278 -0.00744815 4.17588278 -0.00744815 5.68769169 -0.00507832 C6.72844083 -0.00734387 7.76918998 -0.00960943 8.84147698 -0.01194364 C12.35769551 -0.01831556 15.87387582 -0.01745224 19.39009953 -0.01662922 C21.89928583 -0.01961871 24.40847167 -0.02302075 26.9176569 -0.02680683 C33.04301518 -0.03474981 39.16835926 -0.0378624 45.2937222 -0.03841921 C50.27032328 -0.0388936 55.24692117 -0.04094451 60.22352123 -0.04411983 C74.31855312 -0.05293079 88.41357737 -0.05753852 102.50861203 -0.05678936 C103.26920505 -0.0567494 104.02979807 -0.05670945 104.81343937 -0.05666828 C105.95571434 -0.05660696 105.95571434 -0.05660696 107.12106556 -0.0565444 C119.46749622 -0.0561378 131.81389641 -0.06570977 144.16031825 -0.07980665 C156.8232807 -0.0941514 169.48622828 -0.10107788 182.14919907 -0.10021287 C189.2642305 -0.09988024 196.37922998 -0.102656 203.49425411 -0.11339092 C210.18279974 -0.12341734 216.87126648 -0.12318008 223.55981922 -0.11587429 C226.02135599 -0.11482322 228.48289689 -0.117222 230.94442654 -0.12323475 C234.29154665 -0.13088417 237.63842873 -0.126357 240.98554325 -0.11860371 C241.97122726 -0.12374727 242.95691128 -0.12889083 243.9724645 -0.13419026 C244.86409577 -0.12959147 245.75572704 -0.12499267 246.67437744 -0.12025452 C247.83436938 -0.12058057 247.83436938 -0.12058057 249.0177955 -0.12091321 C250.90010929 0.12863445 250.90010929 0.12863445 252.90010929 2.12863445 C253.12716007 4.19162273 253.12716007 4.19162273 253.09542179 6.69894695 C253.08897648 7.59484539 253.08253117 8.49074383 253.07589054 9.4137907 C253.05913273 10.35093914 253.04237492 11.28808758 253.02510929 12.25363445 C253.01608585 13.19851727 253.00706242 14.14340008 252.99776554 15.1169157 C252.97415451 17.45440737 252.94122445 19.79139569 252.90010929 22.12863445 C253.75560368 22.12077923 253.75560368 22.12077923 254.62838078 22.11276531 C257.19811252 22.09205224 259.76782676 22.07899255 262.33760929 22.06613445 C263.68435734 22.05356609 263.68435734 22.05356609 265.05831242 22.04074383 C265.91231632 22.03752117 266.76632023 22.03429852 267.64620304 22.0309782 C268.43696232 22.02574139 269.2277216 22.02050457 270.04244328 22.01510906 C271.90010929 22.12863445 271.90010929 22.12863445 272.90010929 23.12863445 C273.00065534 24.81958856 273.03087274 26.51475912 273.03382206 28.20869732 C273.03808704 29.30943584 273.04235203 30.41017437 273.04674625 31.54426861 C273.04629307 32.76247799 273.04583988 33.98068737 273.04537296 35.23581219 C273.05041088 37.14778896 273.05041088 37.14778896 273.05555058 39.09839153 C273.06441094 42.6045579 273.06672954 46.11069989 273.06736636 49.61687636 C273.0683138 52.53948669 273.07199019 55.46209128 273.07553846 58.3846994 C273.08369078 65.27761884 273.08612199 72.17052521 273.08541203 79.06344891 C273.08481104 86.1838083 273.09536522 93.30409199 273.11115569 100.42443222 C273.12421298 106.52889535 273.12959669 112.63333368 273.12895662 118.73781067 C273.12870109 122.38759205 273.13158211 126.03730619 273.14213467 129.68707371 C273.15357568 133.75545621 273.14907998 137.82366813 273.14302921 141.89206219 C273.14864872 143.10824734 273.15426823 144.32443249 273.16005802 145.57747173 C273.15376629 147.23280926 273.15376629 147.23280926 273.14734745 148.92158794 C273.14789222 149.88448459 273.14843699 150.84738123 273.14899826 151.83945656 C272.90010929 154.12863445 272.90010929 154.12863445 270.90010929 156.12863445 C269.0253582 156.37933278 269.0253582 156.37933278 266.69278812 156.38031673 C265.36149136 156.38813998 265.36149136 156.38813998 264.00329971 156.39612126 C263.02218877 156.39165982 262.04107782 156.38719838 261.03023624 156.38260174 C259.47395622 156.38728171 259.47395622 156.38728171 257.88623619 156.39205623 C254.38689763 156.40007523 250.8877306 156.3936974 247.38839054 156.38742352 C244.8889083 156.39013164 242.38942686 156.39369157 239.88994694 156.39804363 C233.79211096 156.40623977 227.69434306 156.40500814 221.5965097 156.39921835 C216.64233639 156.39470848 211.68817688 156.39408602 206.73400211 156.39626598 C205.67786212 156.39672568 205.67786212 156.39672568 204.60038596 156.39719467 C203.17020249 156.39783409 201.74001902 156.39848252 200.30983555 156.39913985 C186.88712504 156.40484809 173.46444181 156.39827753 160.04173577 156.38753912 C148.51502109 156.37860316 136.98834668 156.38015506 125.46163273 156.38937664 C112.08818714 156.40007057 98.71476549 156.40429872 85.34131622 156.39815211 C83.91628298 156.39751499 82.49124972 156.39688625 81.06621647 156.39626598 C80.01439756 156.39580316 80.01439756 156.39580316 78.94132978 156.39533098 C73.99094845 156.3936014 69.04058226 156.39652479 64.09020329 156.40122509 C57.43201441 156.40740774 50.77389009 156.40302973 44.11570454 156.39143658 C41.66545711 156.38878179 39.21520331 156.38956892 36.76495838 156.39396191 C33.43321155 156.39938661 30.10171313 156.39262076 26.76998234 156.38260174 C25.29831592 156.3892939 25.29831592 156.3892939 23.79691887 156.39612126 C22.90938769 156.39090577 22.02185652 156.38569027 21.10743046 156.38031673 C20.33768233 156.37999203 19.56793421 156.37966733 18.77486038 156.37933278 C16.90010929 156.12863445 16.90010929 156.12863445 14.90010929 154.12863445 C14.67305851 151.9738493 14.67305851 151.9738493 14.70479679 149.33957195 C14.7112421 148.39855633 14.71768742 147.4575407 14.72432804 146.48800945 C14.74108585 145.5031657 14.75784367 144.51832195 14.77510929 143.50363445 C14.78413273 142.51105633 14.79315617 141.5184782 14.80245304 140.49582195 C14.82606813 138.03985311 14.8590013 135.58436277 14.90010929 133.12863445 C14.3297797 133.13387127 13.75945011 133.13910809 13.17183781 133.14450359 C10.60210606 133.16521666 8.03239183 133.17827636 5.46260929 133.19113445 C4.56477726 133.19951336 3.66694523 133.20789227 2.74190617 133.21652508 C1.88790226 133.21974773 1.03389835 133.22297039 0.15401554 133.2262907 C-0.63674374 133.23152752 -1.42750301 133.23676434 -2.24222469 133.24215984 C-4.09989071 133.12863445 -4.09989071 133.12863445 -5.09989071 132.12863445 C-5.19826112 130.43536388 -5.22621086 128.7379679 -5.22687435 127.04184246 C-5.22969418 125.93965878 -5.232514 124.83747509 -5.23541927 123.7018919 C-5.23238293 121.87222126 -5.23238293 121.87222126 -5.22928524 120.00558758 C-5.23103756 118.7293301 -5.23278988 117.45307262 -5.2345953 116.13814068 C-5.2391692 112.62790454 -5.23738025 109.11769766 -5.23421621 105.60746098 C-5.23169239 101.9417071 -5.23403021 98.27595581 -5.23560238 94.61020184 C-5.23742401 88.45309275 -5.23501794 82.29599563 -5.2302618 76.13888836 C-5.22481919 69.01057841 -5.22658185 61.88229705 -5.23208821 54.75398779 C-5.23661953 48.64444594 -5.2372698 42.53491272 -5.23464954 36.42536974 C-5.23308687 32.7717301 -5.23289273 29.11810393 -5.23618603 25.46446514 C-5.23959886 21.39351984 -5.2348747 17.3226242 -5.22928524 13.25168133 C-5.23130947 12.0319009 -5.2333337 10.81212048 -5.23541927 9.55537701 C-5.23259945 8.45319332 -5.22977962 7.35100964 -5.22687435 6.21542645 C-5.22649733 5.25160801 -5.2261203 4.28778957 -5.22573185 3.29476452 C-5.00490236 -0.50641998 -3.37265832 0.0030728 0 0 Z " fill="#0D0D0D" transform="translate(422.09989070892334,708.8713655471802)"/>
<path d="M0 0 C1.98 1.65 3.96 3.3 6 5 C6.33 -0.28 6.66 -5.56 7 -11 C27.79 -11 48.58 -11 70 -11 C70 49.39 70 109.78 70 172 C49.54 172 29.08 172 8 172 C8 165.4 8 158.8 8 152 C6.865625 153.010625 5.73125 154.02125 4.5625 155.0625 C3.04493736 156.37878033 1.52398747 157.6911637 0 159 C-0.67417969 159.58652344 -1.34835937 160.17304687 -2.04296875 160.77734375 C-10.60030433 167.85761578 -21.22287299 173.23763171 -32 176 C-32.75539063 176.20367188 -33.51078125 176.40734375 -34.2890625 176.6171875 C-56.19943591 181.56906756 -80.52204546 177.27030545 -99.625 165.75 C-105.25541349 162.01257036 -110.12097509 157.6561657 -115 153 C-115.73863281 152.35933594 -116.47726562 151.71867187 -117.23828125 151.05859375 C-134.12811151 135.72874781 -142.88492265 111.79026459 -144.14428711 89.43920898 C-145.22004001 59.15327216 -137.86695865 32.80096945 -117 10 C-107.38847218 0.13901268 -96.18973004 -7.77324817 -83 -12 C-81.92363281 -12.37125 -80.84726562 -12.7425 -79.73828125 -13.125 C-53.21796814 -21.10603467 -22.36641646 -16.411491 0 0 Z " fill="#000000" transform="translate(978,1004)"/>
<path d="M0 0 C20.79 0 41.58 0 63 0 C63.33 61.71 63.66 123.42 64 187 C95.185 155.815 95.185 155.815 127 124 C153.99163853 117.10656224 153.99163853 117.10656224 169.33795166 119.6741333 C173.84612908 120.34764491 178.38280674 120.61176521 182.92773438 120.92382812 C191.68649657 121.57972741 200.32379847 122.63220335 209 124 C204.56256247 129.312876 199.88042951 134.25737163 194.97509766 139.13842773 C194.19393585 139.91973557 193.41277405 140.7010434 192.60794067 141.50602722 C190.04567983 144.0675958 187.47990363 146.62561188 184.9140625 149.18359375 C183.12879956 150.96699007 181.34375842 152.75060846 179.55892944 154.53443909 C175.35355877 158.73639203 171.14596893 162.93611407 166.93727815 167.13474089 C162.14201069 171.91879277 157.34961586 176.70571793 152.55744863 181.49287498 C142.70813696 191.33176179 132.85526086 201.16707255 123 211 C127.64555972 216.58296679 132.60376998 221.72890519 137.75927734 226.84106445 C138.61846771 227.69718826 139.47765808 228.55331207 140.36288452 229.43537903 C142.69963183 231.76315329 145.03853671 234.08873536 147.37812376 236.41365457 C149.83087688 238.85263307 152.27994165 241.29530799 154.72915649 243.73783875 C163.0580271 252.04263608 171.39290839 260.34138602 179.73193359 268.63598633 C184.34799083 273.22753021 188.96047413 277.82263419 193.56912196 282.4216153 C196.48368854 285.32963163 199.40270786 288.23308035 202.32507777 291.13325369 C204.55973442 293.35347685 206.78791392 295.58018432 209.01708984 297.8059082 C210.23724792 299.01292389 210.23724792 299.01292389 211.48205566 300.24432373 C212.57971756 301.34394188 212.57971756 301.34394188 213.69955444 302.46577454 C214.34070379 303.10378148 214.98185314 303.74178843 215.64243126 304.39912891 C217 306 217 306 217 308 C205.05844734 310.23334382 193.11982739 311.6763768 181 312.5 C179.64936399 312.59244995 179.64936399 312.59244995 178.27144241 312.68676758 C154.08680931 314.14592565 135.71219395 310.59585362 117.17502975 294.32188416 C109.38400082 287.23019472 102.06409923 279.75541681 94.9375 272 C94.14587463 271.13903717 93.35424927 270.27807434 92.53863525 269.39102173 C82.63311705 258.55108526 73.31997833 247.37697627 64 236 C63.67 259.43 63.34 282.86 63 307 C42.21 307 21.42 307 0 307 C0 205.69 0 104.38 0 0 Z " fill="#010101" transform="translate(1267,869)"/>
<path d="M0 0 C68.31 0 136.62 0 207 0 C207 19.47 207 38.94 207 59 C183.9 59 160.8 59 137 59 C137 136.55 137 214.1 137 294 C114.89 294 92.78 294 70 294 C70 216.45 70 138.9 70 59 C46.9 59 23.8 59 0 59 C0 39.53 0 20.06 0 0 Z " fill="#000000" transform="translate(464,882)"/>
<path d="M0 0 C1.010625 0.26683594 2.02125 0.53367187 3.0625 0.80859375 C15.42053471 4.50614403 27.24881694 10.55567652 37 19 C37.81339844 19.62261719 38.62679688 20.24523437 39.46484375 20.88671875 C56.1877077 34.82673323 64.26640287 56.042422 67 77 C67 85.58 67 94.16 67 103 C23.11 103 -20.78 103 -66 103 C-63.46023601 118.38210733 -63.46023601 118.38210733 -54 130 C-44.3774787 136.49270468 -36.69854324 139.51161094 -25.0625 139.3125 C-24.12470703 139.31572266 -23.18691406 139.31894531 -22.22070312 139.32226562 C-7.38727721 139.20887599 1.79624194 134.43012238 13 125 C14.99871623 123.33178957 16.99954699 121.66612838 19 120 C25.25213943 123.08813747 31.49961852 126.1855483 37.74389648 129.28955078 C39.87010408 130.34509639 41.99738204 131.39848872 44.12573242 132.44970703 C47.17909003 133.95825763 50.22855517 135.4744285 53.27734375 136.9921875 C54.23462875 137.46308807 55.19191376 137.93398865 56.1782074 138.41915894 C57.05904495 138.85946442 57.93988251 139.2997699 58.84741211 139.75341797 C59.62684677 140.13980438 60.40628143 140.5261908 61.20933533 140.92428589 C63 142 63 142 64 144 C48.64942027 166.00110338 28.81415621 182.83468161 1.8125 187.75 C-0.05625234 188.06046365 -1.92532 188.36988911 -3.79858398 188.65185547 C-5.44801339 188.91270568 -7.09281231 189.20312787 -8.73461914 189.50830078 C-35.01225112 194.29460666 -62.69777784 190.77617828 -85.375 176.125 C-107.88132941 160.16372112 -125.72901056 139.00216732 -130.58544922 111.14892578 C-132.66984449 95.31586912 -132.47762869 78.10823077 -127 63 C-126.62617187 61.93265625 -126.25234375 60.8653125 -125.8671875 59.765625 C-116.23931053 34.64387981 -95.07439672 15.09965794 -71.01660156 3.85644531 C-49.37805075 -5.33338958 -22.53301923 -6.13812198 0 0 Z " fill="#010101" transform="translate(1607,991)"/>
<path d="M0 0 C1.26978082 0.99612116 2.52988081 2.00613365 3.75 3.0625 C-3.00230458 17.52198052 -10.06583705 31.8130869 -17.25 46.0625 C-18.01892578 45.7538501 -18.78785156 45.4452002 -19.58007812 45.12719727 C-22.29055854 44.04632628 -25.01274238 43.01109375 -27.75 42 C-28.6678125 41.65839844 -29.585625 41.31679687 -30.53125 40.96484375 C-40.31630633 37.7172173 -54.27364886 37.01918916 -64 40.6875 C-66.22775561 41.76816285 -66.22775561 41.76816285 -68.25 43.0625 C-68.93835937 43.48660156 -69.62671875 43.91070313 -70.3359375 44.34765625 C-80.50068918 51.33835712 -87.92892406 61.21563294 -90.625 73.3125 C-92.56858092 86.38076787 -90.10708606 98.47926395 -83.1015625 109.57421875 C-76.33986737 118.66113816 -67.45206871 124.55238882 -56.375 126.875 C-55.0014824 126.96433448 -53.62586619 127.02346833 -52.25 127.0625 C-51.29609375 127.124375 -50.3421875 127.18625 -49.359375 127.25 C-39.7374288 127.62186266 -30.59621873 125.88141533 -22.02734375 121.36328125 C-19.25 120.0625 -19.25 120.0625 -16.25 121.0625 C-14.71948242 123.64770508 -14.71948242 123.64770508 -13.10546875 127.08203125 C-12.81319901 127.69584152 -12.52092926 128.30965179 -12.21980286 128.94206238 C-11.28267218 130.91528995 -10.35976732 132.8947882 -9.4375 134.875 C-8.526113 136.80754754 -7.61184523 138.73871009 -6.697052 140.66964722 C-6.09540633 141.94229282 -5.49633453 143.21615848 -4.89987183 144.49124146 C-2.48737757 149.63382729 0.10925372 154.66880862 2.7878418 159.6784668 C3.75 162.0625 3.75 162.0625 2.75 165.0625 C-11.87939059 174.23644895 -31.00966932 179.52048235 -48.25 180.0625 C-48.99813965 180.09891602 -49.7462793 180.13533203 -50.51708984 180.17285156 C-79.96683883 181.51122091 -105.84473143 172.61099797 -127.80615234 152.64794922 C-142.70383255 138.80395338 -151.87500935 123.80382509 -157.25 104.0625 C-157.47816406 103.23105469 -157.70632813 102.39960937 -157.94140625 101.54296875 C-162.92022398 80.5483737 -158.26069378 56.23369161 -147.875 37.625 C-131.89860069 12.0627611 -107.49773943 -5.89021635 -78.25 -12.9375 C-53.72166568 -17.636972 -21.0551882 -14.68204779 0 0 Z " fill="#010101" transform="translate(1237.25,1001.9375)"/>
<path d="M0 0 C0.94875 0.38027344 1.8975 0.76054688 2.875 1.15234375 C6.17382577 2.55328739 9.00860252 4.00573501 12 6 C10.27381771 11.94963337 7.5080439 17.33387232 4.7734375 22.8671875 C4.26575836 23.90191193 3.75807922 24.93663635 3.23501587 26.00271606 C1.61855852 29.2952347 -0.00314254 32.58513858 -1.625 35.875 C-2.72430561 38.11180853 -3.82326789 40.34878582 -4.921875 42.5859375 C-7.61060783 48.05925364 -10.30364634 53.53043449 -13 59 C-16.32417374 58.22537118 -19.11243401 57.05787841 -22.1875 55.5625 C-33.99143557 50.20270773 -48.59645856 48.4254889 -61.125 52.625 C-62.7740809 53.36519814 -64.40254434 54.15412972 -66 55 C-67.06927734 55.51433594 -67.06927734 55.51433594 -68.16015625 56.0390625 C-75.63925178 60.50634499 -80.34015788 70.76064965 -82.53222656 79.00064087 C-83.20445971 83.31099387 -83.17852744 87.57425302 -83.20532227 91.9309082 C-83.21522186 92.92650253 -83.22512146 93.92209686 -83.23532104 94.94786072 C-83.26685843 98.23214353 -83.29166283 101.51644081 -83.31640625 104.80078125 C-83.33698247 107.08050407 -83.35797912 109.36022312 -83.37937927 111.63993835 C-83.43453087 117.63547723 -83.48397065 123.63105014 -83.53222656 129.62664795 C-83.59133218 136.82287564 -83.65752211 144.01904123 -83.72252655 151.21521759 C-83.82044909 162.14344041 -83.90936475 173.07170336 -84 184 C-105.12 184 -126.24 184 -148 184 C-148 123.28 -148 62.56 -148 0 C-126.88 0 -105.76 0 -84 0 C-83.505 12.375 -83.505 12.375 -83 25 C-79.535 21.04 -79.535 21.04 -76 17 C-56.14915741 -5.20210744 -27.3333476 -11.10417246 0 0 Z " fill="#020202" transform="translate(1851,993)"/>
<path d="M0 0 C-1.62395258 5.51594525 -4.09815656 10.45233401 -6.68359375 15.5625 C-7.13976578 16.47201416 -7.59593781 17.38152832 -8.06593323 18.31860352 C-9.51936116 21.21431011 -10.97832827 24.10718421 -12.4375 27 C-13.41508326 28.94512673 -14.39230064 30.89043739 -15.36914062 32.8359375 C-17.16497123 36.41130174 -18.96288498 39.98560029 -20.76342773 43.55859375 C-22.51554711 47.03579858 -24.26123601 50.51609902 -26 54 C-26.84820313 53.51789063 -27.69640625 53.03578125 -28.5703125 52.5390625 C-36.96016011 47.94971318 -44.33308345 45.60281226 -54 45 C-55.11632812 44.91878906 -56.23265625 44.83757812 -57.3828125 44.75390625 C-67.93662246 44.34223281 -76.81986464 47.00435049 -84.99609375 53.8203125 C-88.78808996 57.94493996 -90.95537929 62.83268584 -93 68 C-93.25308835 68.63525825 -93.5061767 69.27051649 -93.76693439 69.92502499 C-95.93741566 75.81683275 -96.44220091 81.0471424 -96.43237305 87.29321289 C-96.4425647 88.27963776 -96.45275635 89.26606262 -96.46325684 90.28237915 C-96.49322574 93.5125305 -96.50262819 96.74238452 -96.51171875 99.97265625 C-96.52857735 102.22424798 -96.54672918 104.47583036 -96.56611633 106.72740173 C-96.61349391 112.6308195 -96.64338251 118.53419936 -96.66955566 124.43774414 C-96.70468152 131.53316622 -96.76165938 138.62844281 -96.81494904 145.72374725 C-96.89331927 156.48247939 -96.94403402 167.24102296 -97 178 C-117.79 178 -138.58 178 -160 178 C-160 117.28 -160 56.56 -160 -6 C-138.88 -6 -117.76 -6 -96 -6 C-95.505 5.88 -95.505 5.88 -95 18 C-93.783125 16.55625 -92.56625 15.1125 -91.3125 13.625 C-83.37287294 4.82399831 -74.00429429 -2.44231591 -63 -7 C-62.17113281 -7.39058594 -61.34226562 -7.78117188 -60.48828125 -8.18359375 C-40.34167432 -16.48939889 -18.10411727 -9.93076386 0 0 Z " fill="#010101" transform="translate(832,999)"/>
<path d="M0 0 C1.33353528 -0.00483667 1.33353528 -0.00483667 2.69401067 -0.00977105 C4.17588278 -0.00744815 4.17588278 -0.00744815 5.68769169 -0.00507832 C6.72844083 -0.00734387 7.76918998 -0.00960943 8.84147698 -0.01194364 C12.35769551 -0.01831556 15.87387582 -0.01745224 19.39009953 -0.01662922 C21.89928583 -0.01961871 24.40847167 -0.02302075 26.9176569 -0.02680683 C33.04301518 -0.03474981 39.16835926 -0.0378624 45.2937222 -0.03841921 C50.27032328 -0.0388936 55.24692117 -0.04094451 60.22352123 -0.04411983 C74.31855312 -0.05293079 88.41357737 -0.05753852 102.50861203 -0.05678936 C103.26920505 -0.0567494 104.02979807 -0.05670945 104.81343937 -0.05666828 C105.95571434 -0.05660696 105.95571434 -0.05660696 107.12106556 -0.0565444 C119.46749622 -0.0561378 131.81389641 -0.06570977 144.16031825 -0.07980665 C156.8232807 -0.0941514 169.48622828 -0.10107788 182.14919907 -0.10021287 C189.2642305 -0.09988024 196.37922998 -0.102656 203.49425411 -0.11339092 C210.18279974 -0.12341734 216.87126648 -0.12318008 223.55981922 -0.11587429 C226.02135599 -0.11482322 228.48289689 -0.117222 230.94442654 -0.12323475 C234.29154665 -0.13088417 237.63842873 -0.126357 240.98554325 -0.11860371 C241.97122726 -0.12374727 242.95691128 -0.12889083 243.9724645 -0.13419026 C244.86409577 -0.12959147 245.75572704 -0.12499267 246.67437744 -0.12025452 C247.83436938 -0.12058057 247.83436938 -0.12058057 249.0177955 -0.12091321 C250.90010929 0.12863445 250.90010929 0.12863445 252.90010929 2.12863445 C253.12716007 4.19162273 253.12716007 4.19162273 253.09542179 6.69894695 C253.08897648 7.59484539 253.08253117 8.49074383 253.07589054 9.4137907 C253.05913273 10.35093914 253.04237492 11.28808758 253.02510929 12.25363445 C253.01608585 13.19851727 253.00706242 14.14340008 252.99776554 15.1169157 C252.97415451 17.45440737 252.94122445 19.79139569 252.90010929 22.12863445 C253.75560368 22.12077923 253.75560368 22.12077923 254.62838078 22.11276531 C257.19811252 22.09205224 259.76782676 22.07899255 262.33760929 22.06613445 C263.68435734 22.05356609 263.68435734 22.05356609 265.05831242 22.04074383 C265.91231632 22.03752117 266.76632023 22.03429852 267.64620304 22.0309782 C268.43696232 22.02574139 269.2277216 22.02050457 270.04244328 22.01510906 C271.90010929 22.12863445 271.90010929 22.12863445 272.90010929 23.12863445 C273.00065534 24.81958856 273.03087274 26.51475912 273.03382206 28.20869732 C273.03808704 29.30943584 273.04235203 30.41017437 273.04674625 31.54426861 C273.04629307 32.76247799 273.04583988 33.98068737 273.04537296 35.23581219 C273.05041088 37.14778896 273.05041088 37.14778896 273.05555058 39.09839153 C273.06441094 42.6045579 273.06672954 46.11069989 273.06736636 49.61687636 C273.0683138 52.53948669 273.07199019 55.46209128 273.07553846 58.3846994 C273.08369078 65.27761884 273.08612199 72.17052521 273.08541203 79.06344891 C273.08481104 86.1838083 273.09536522 93.30409199 273.11115569 100.42443222 C273.12421298 106.52889535 273.12959669 112.63333368 273.12895662 118.73781067 C273.12870109 122.38759205 273.13158211 126.03730619 273.14213467 129.68707371 C273.15357568 133.75545621 273.14907998 137.82366813 273.14302921 141.89206219 C273.14864872 143.10824734 273.15426823 144.32443249 273.16005802 145.57747173 C273.15376629 147.23280926 273.15376629 147.23280926 273.14734745 148.92158794 C273.14789222 149.88448459 273.14843699 150.84738123 273.14899826 151.83945656 C272.90010929 154.12863445 272.90010929 154.12863445 270.90010929 156.12863445 C269.0253582 156.37933278 269.0253582 156.37933278 266.69278812 156.38031673 C265.36149136 156.38813998 265.36149136 156.38813998 264.00329971 156.39612126 C263.02218877 156.39165982 262.04107782 156.38719838 261.03023624 156.38260174 C259.47395622 156.38728171 259.47395622 156.38728171 257.88623619 156.39205623 C254.38689763 156.40007523 250.8877306 156.3936974 247.38839054 156.38742352 C244.8889083 156.39013164 242.38942686 156.39369157 239.88994694 156.39804363 C233.79211096 156.40623977 227.69434306 156.40500814 221.5965097 156.39921835 C216.64233639 156.39470848 211.68817688 156.39408602 206.73400211 156.39626598 C205.67786212 156.39672568 205.67786212 156.39672568 204.60038596 156.39719467 C203.17020249 156.39783409 201.74001902 156.39848252 200.30983555 156.39913985 C186.88712504 156.40484809 173.46444181 156.39827753 160.04173577 156.38753912 C148.51502109 156.37860316 136.98834668 156.38015506 125.46163273 156.38937664 C112.08818714 156.40007057 98.71476549 156.40429872 85.34131622 156.39815211 C83.91628298 156.39751499 82.49124972 156.39688625 81.06621647 156.39626598 C80.01439756 156.39580316 80.01439756 156.39580316 78.94132978 156.39533098 C73.99094845 156.3936014 69.04058226 156.39652479 64.09020329 156.40122509 C57.43201441 156.40740774 50.77389009 156.40302973 44.11570454 156.39143658 C41.66545711 156.38878179 39.21520331 156.38956892 36.76495838 156.39396191 C33.43321155 156.39938661 30.10171313 156.39262076 26.76998234 156.38260174 C25.29831592 156.3892939 25.29831592 156.3892939 23.79691887 156.39612126 C22.90938769 156.39090577 22.02185652 156.38569027 21.10743046 156.38031673 C20.33768233 156.37999203 19.56793421 156.37966733 18.77486038 156.37933278 C16.90010929 156.12863445 16.90010929 156.12863445 14.90010929 154.12863445 C14.67305851 151.9738493 14.67305851 151.9738493 14.70479679 149.33957195 C14.7112421 148.39855633 14.71768742 147.4575407 14.72432804 146.48800945 C14.74108585 145.5031657 14.75784367 144.51832195 14.77510929 143.50363445 C14.78413273 142.51105633 14.79315617 141.5184782 14.80245304 140.49582195 C14.82606813 138.03985311 14.8590013 135.58436277 14.90010929 133.12863445 C14.3297797 133.13387127 13.75945011 133.13910809 13.17183781 133.14450359 C10.60210606 133.16521666 8.03239183 133.17827636 5.46260929 133.19113445 C4.56477726 133.19951336 3.66694523 133.20789227 2.74190617 133.21652508 C1.88790226 133.21974773 1.03389835 133.22297039 0.15401554 133.2262907 C-0.63674374 133.23152752 -1.42750301 133.23676434 -2.24222469 133.24215984 C-4.09989071 133.12863445 -4.09989071 133.12863445 -5.09989071 132.12863445 C-5.19826112 130.43536388 -5.22621086 128.7379679 -5.22687435 127.04184246 C-5.22969418 125.93965878 -5.232514 124.83747509 -5.23541927 123.7018919 C-5.23238293 121.87222126 -5.23238293 121.87222126 -5.22928524 120.00558758 C-5.23103756 118.7293301 -5.23278988 117.45307262 -5.2345953 116.13814068 C-5.2391692 112.62790454 -5.23738025 109.11769766 -5.23421621 105.60746098 C-5.23169239 101.9417071 -5.23403021 98.27595581 -5.23560238 94.61020184 C-5.23742401 88.45309275 -5.23501794 82.29599563 -5.2302618 76.13888836 C-5.22481919 69.01057841 -5.22658185 61.88229705 -5.23208821 54.75398779 C-5.23661953 48.64444594 -5.2372698 42.53491272 -5.23464954 36.42536974 C-5.23308687 32.7717301 -5.23289273 29.11810393 -5.23618603 25.46446514 C-5.23959886 21.39351984 -5.2348747 17.3226242 -5.22928524 13.25168133 C-5.23130947 12.0319009 -5.2333337 10.81212048 -5.23541927 9.55537701 C-5.23259945 8.45319332 -5.22977962 7.35100964 -5.22687435 6.21542645 C-5.22649733 5.25160801 -5.2261203 4.28778957 -5.22573185 3.29476452 C-5.00490236 -0.50641998 -3.37265832 0.0030728 0 0 Z M2.90010929 8.12863445 C2.90010929 46.73863445 2.90010929 85.34863445 2.90010929 125.12863445 C82.43010929 125.12863445 161.96010929 125.12863445 243.90010929 125.12863445 C243.90010929 86.51863445 243.90010929 47.90863445 243.90010929 8.12863445 C164.37010929 8.12863445 84.84010929 8.12863445 2.90010929 8.12863445 Z " fill="#060606" transform="translate(422.09989070892334,708.8713655471802)"/>
<path d="M0 0 C79.53 0 159.06 0 241 0 C241 38.61 241 77.22 241 117 C161.47 117 81.94 117 0 117 C0 78.39 0 39.78 0 0 Z M37 16 C36.46117187 16.76441406 35.92234375 17.52882813 35.3671875 18.31640625 C34.87476563 19.05761719 34.38234375 19.79882812 33.875 20.5625 C33.37742187 21.30628906 32.87984375 22.05007813 32.3671875 22.81640625 C30.96289615 24.93701372 30.96289615 24.93701372 30.0703125 27.15234375 C28.70362443 29.51162643 27.4758422 29.92549344 25 31 C23.46539873 31.9787405 21.94485358 32.97979453 20.4375 34 C19.67308594 34.515625 18.90867187 35.03125 18.12109375 35.5625 C17.42113281 36.036875 16.72117187 36.51125 16 37 C15.01 37.66 14.02 38.32 13 39 C12.59632882 41.89629289 12.38773952 44.57127314 12.3203125 47.48046875 C12.29846893 48.32668289 12.27662537 49.17289703 12.25411987 50.04475403 C12.21697622 51.83932534 12.18900385 53.6341061 12.16943359 55.42895508 C12.12539459 58.16300264 12.00676263 60.88752494 11.88671875 63.61914062 C11.39259303 72.81286106 11.39259303 72.81286106 15.33496094 80.65869141 C18.15852409 82.43562979 20.93901122 83.69027258 24 85 C27.60590332 87.64158982 30.07254995 90.16607208 32.5625 93.875 C33.15417969 94.74769531 33.74585938 95.62039063 34.35546875 96.51953125 C34.89816406 97.33808594 35.44085938 98.15664063 36 99 C36.42925781 99.64324219 36.85851562 100.28648437 37.30078125 100.94921875 C37.83251953 101.74779297 37.83251953 101.74779297 38.375 102.5625 C39.78549798 104.85087002 39.78549798 104.85087002 41 106 C43.04105819 106.10556808 45.08582014 106.13968303 47.1295929 106.14717102 C47.77690988 106.15084771 48.42422687 106.1545244 49.09115952 106.1583125 C51.27603152 106.16938964 53.46085602 106.17319995 55.64575195 106.17700195 C57.20589348 106.18326358 58.76603351 106.1899101 60.32617188 106.19691467 C64.57624048 106.21435273 68.82629782 106.22488407 73.07639337 106.2331202 C75.72961833 106.23826445 78.38283976 106.24434044 81.03606224 106.25063133 C89.33129347 106.2696913 97.62651574 106.28392066 105.92176467 106.2922433 C115.50849472 106.30201948 125.09499409 106.32834545 134.68164283 106.36874419 C142.08378942 106.39887055 149.48586976 106.41370886 156.88807648 106.41702431 C161.31265268 106.41937884 165.73698268 106.42839101 170.1614933 106.45348549 C174.32379369 106.47671053 178.48568484 106.48102212 182.64803314 106.47072411 C184.17668453 106.47022727 185.70535567 106.47659124 187.23394585 106.49028015 C189.31961011 106.50791423 191.40379216 106.50093705 193.48945618 106.48774719 C195.2407582 106.49132972 195.2407582 106.49132972 197.02744007 106.49498463 C200.64365873 105.89281926 201.748374 104.82776404 204 102 C205.10139437 100.27421418 206.16223123 98.52206947 207.1875 96.75 C212.10177418 88.87456061 218.51136017 83.56775545 226.46875 78.91015625 C227.99268205 78.08950024 227.99268205 78.08950024 229 77 C229.41336018 71.83874401 229.52806153 66.67679569 229.62475586 61.50097656 C229.66634273 59.76047707 229.72764315 58.02032902 229.80932617 56.28125 C230.64441736 46.21817536 230.64441736 46.21817536 226.87231445 37.37304688 C224.31576894 35.59106244 221.82423423 34.30114208 219 33 C213.06509495 28.67597074 209.33347544 23.88778431 205.640625 17.55078125 C203.91580136 14.86909116 202.47752233 13.01456523 200 11 C196.95768677 10.39612873 196.95768677 10.39612873 193.50964355 10.4853363 C192.85976329 10.47839078 192.20988303 10.47144525 191.54030943 10.46428925 C189.36441366 10.4460043 187.18960639 10.45628653 185.01367188 10.46655273 C183.45308109 10.45949499 181.89249715 10.45075058 180.33192444 10.44044495 C176.09431258 10.41792594 171.85707376 10.42089624 167.61942482 10.42976642 C164.08295319 10.43487276 160.54655188 10.42758672 157.01008749 10.42029434 C148.6686092 10.40328773 140.32731383 10.40686924 131.98583984 10.42358398 C123.37647632 10.44051225 114.76761955 10.424663 106.15831137 10.3923611 C98.76880687 10.3656849 91.37946033 10.35838366 83.98991251 10.36687618 C79.5754309 10.37181046 75.16125436 10.36956282 70.74681091 10.34908867 C66.59664618 10.33076188 62.44721194 10.33665269 58.29708672 10.36128807 C56.773288 10.36630534 55.24943392 10.36278239 53.7256794 10.35013962 C51.64639404 10.3342511 49.56952681 10.34911375 47.49035645 10.37181091 C46.32671822 10.37239722 45.16307999 10.37298353 43.96417999 10.37358761 C40.07748781 11.19495208 39.12513702 12.73599275 37 16 Z " fill="#F6F6F6" transform="translate(425,717)"/>
<path d="M0 0 C11.74006145 6.58978926 18.9439195 15.76730252 22.8671875 28.609375 C23.41263219 32.25520713 23.4891359 35.80245126 23.4296875 39.484375 C23.41325195 40.93118652 23.41325195 40.93118652 23.39648438 42.40722656 C23.02667838 54.59849768 18.59509539 64.02990092 9.8671875 72.609375 C-1.2813367 81.45476096 -12.07846877 83.69735707 -26.1328125 82.609375 C-37.55388439 80.74677288 -46.78493806 75.56158884 -54.1328125 66.609375 C-61.24298126 55.96216797 -63.23120822 44.25661711 -62.1328125 31.609375 C-59.65616934 19.8229407 -53.14959829 9.43189981 -43.1328125 2.609375 C-29.55347925 -4.56215216 -14.36717725 -6.50727112 0 0 Z " fill="#FDFDFD" transform="translate(963.1328125,1045.390625)"/>
<path d="M0 0 C9.35080806 6.17850905 17.28092356 14.42407248 20.19921875 25.453125 C20.51946339 28.37482362 20.5803775 31.26540167 20.57421875 34.203125 C20.57260742 35.00008789 20.57099609 35.79705078 20.56933594 36.61816406 C20.43883927 42.89991525 19.35976065 47.95225104 16.19921875 53.453125 C15.60109375 54.505 15.00296875 55.556875 14.38671875 56.640625 C7.74791728 65.17622689 0.18162131 70.8049237 -10.80078125 72.453125 C-23.20079061 73.29821083 -33.05531424 71.42158747 -42.80078125 63.453125 C-50.01244751 56.61087594 -54.21550445 47.74825343 -55.13671875 37.83984375 C-55.2699385 25.22393321 -52.50443729 16.7074205 -43.80078125 7.453125 C-41.28662927 5.14934084 -38.69095733 3.25742847 -35.80078125 1.453125 C-35.19363281 1.03933594 -34.58648438 0.62554688 -33.9609375 0.19921875 C-24.88828536 -4.95692217 -9.24418565 -4.58176043 0 0 Z " fill="#FAFAFA" transform="translate(562.80078125,740.546875)"/>
<path d="M0 0 C3.96 0 7.92 0 12 0 C12 38.28 12 76.56 12 116 C-67.53 116 -147.06 116 -229 116 C-229 111.71 -229 107.42 -229 103 C-227.83710009 102.99668985 -226.67420017 102.99337971 -225.47606087 102.98996925 C-197.89364531 102.91101344 -170.31127843 102.82181718 -142.72893757 102.71994839 C-139.33670736 102.70742897 -135.94447683 102.69499628 -132.55224609 102.68261719 C-131.87689178 102.68015119 -131.20153746 102.6776852 -130.50571786 102.67514448 C-119.55925323 102.63538147 -108.61277823 102.60264984 -97.66628338 102.57250018 C-86.44069992 102.54142595 -75.21516077 102.50268484 -63.98962486 102.45720994 C-57.68166475 102.43190104 -51.37373608 102.41013285 -45.06573868 102.39665604 C-39.13475077 102.3838754 -33.20387046 102.36186464 -27.27294159 102.33261681 C-25.09039087 102.32350962 -22.90782281 102.31784354 -20.72525406 102.31578636 C-17.75682652 102.3124859 -14.78870818 102.29706918 -11.82034302 102.2784729 C-10.94681439 102.28040763 -10.07328575 102.28234237 -9.17328656 102.28433573 C-4.60956642 102.44643856 -4.60956642 102.44643856 -1 100 C-0.68734717 98.12891691 -0.68734717 98.12891691 -0.7215271 95.96310425 C-0.71036362 95.11893951 -0.69920013 94.27477478 -0.68769836 93.4050293 C-0.68445808 92.01320435 -0.68445808 92.01320435 -0.68115234 90.59326172 C-0.66608391 89.12978806 -0.66608391 89.12978806 -0.65071106 87.63674927 C-0.61973735 84.4010682 -0.60280457 81.16547038 -0.5859375 77.9296875 C-0.56723726 75.69051388 -0.54766473 73.45134739 -0.5272522 71.21218872 C-0.47580411 65.31032505 -0.43624635 59.40843849 -0.39910889 53.50646973 C-0.35914853 47.4873279 -0.30801995 41.46828228 -0.2578125 35.44921875 C-0.16090319 23.63287996 -0.07654659 11.81648701 0 0 Z " fill="#F7F7F7" transform="translate(675,740)"/>
<path d="M0 0 C6.56432537 -0.2796998 13.12710969 -0.47183896 19.69604492 -0.60424805 C21.92839967 -0.65945386 24.16035861 -0.73444181 26.39135742 -0.82983398 C45.01302147 -1.60590958 45.01302147 -1.60590958 49.89990234 2.34375 C51.71484375 5.26953125 51.71484375 5.26953125 52.87084961 8.19067383 C54.86889903 13.16182078 59.94518563 17.55917489 64.80029297 19.84912109 C67.0482897 21.03775008 68.40432651 22.0025117 70 24 C71.17274423 28.62962143 71.15900603 33.11901361 71.125 37.875 C71.18558594 39.12925781 71.24617187 40.38351562 71.30859375 41.67578125 C71.32053636 45.43770282 71.15811459 48.41601726 70 52 C67.42668041 54.47771721 65.00048975 55.95777843 61.80004883 57.52587891 C54.69119837 61.26842308 50.86259186 68.24046424 47 75 C31.49 75 15.98 75 0 75 C1.98 72.69 3.96 70.38 6 68 C7.27575017 66.2411988 8.51089635 64.45161545 9.6875 62.625 C10.24824219 61.77164063 10.80898438 60.91828125 11.38671875 60.0390625 C15.26303097 52.73695376 16.55985383 45.97800761 16.5 37.75 C16.49427979 36.8312207 16.48855957 35.91244141 16.48266602 34.96582031 C16.1662704 22.84264817 11.9562838 14.11323782 4 5 C2.66314067 3.33616026 1.32941524 1.6697936 0 0 Z " fill="#FDFDFD" transform="translate(575,738)"/>
<path d="M0 0 C2.85042406 -0.16997665 5.64347247 -0.14723203 8.49771118 -0.05949402 C10.05404266 -0.04675949 10.05404266 -0.04675949 11.64181519 -0.0337677 C14.95421389 -0.00019293 18.26417396 0.07509807 21.57583618 0.15144348 C23.82189476 0.18153762 26.06799152 0.20891438 28.31411743 0.23347473 C33.81885506 0.29961126 39.32217143 0.40000045 44.82583618 0.52644348 C44.03886353 1.30568176 43.25189087 2.08492004 42.44107056 2.88777161 C33.14413887 12.26802158 27.39547748 23.73362232 27.26333618 37.02644348 C27.46904644 48.59926274 30.71915857 58.35653689 37.82583618 67.52644348 C38.56833618 68.51644348 39.31083618 69.50644348 40.07583618 70.52644348 C41.67508422 72.60883118 41.67508422 72.60883118 43.82583618 73.52644348 C43.82583618 74.18644348 43.82583618 74.84644348 43.82583618 75.52644348 C37.42226567 75.80649866 31.02028276 75.99842747 24.61196899 76.13069153 C22.43493663 76.18584517 20.25830877 76.26079447 18.08267212 76.35627747 C-0.04580843 77.13167222 -0.04580843 77.13167222 -5.30502319 73.16511536 C-7.32764757 70.35953961 -8.73712614 67.66081558 -10.17416382 64.52644348 C-11.82238848 62.41774837 -11.82238848 62.41774837 -13.67416382 60.65144348 C-14.23828979 60.09295715 -14.80241577 59.53447083 -15.38363647 58.95906067 C-17.28998393 57.43377476 -19.09002686 56.6916609 -21.32260132 55.72956848 C-24.31507464 53.88639842 -25.05674182 52.96354579 -25.98178101 49.52009583 C-26.32876897 45.70062318 -26.36331952 41.98568984 -26.29916382 38.15144348 C-26.34685913 36.84949036 -26.39455444 35.54753723 -26.44369507 34.20613098 C-26.41508813 24.86119654 -26.41508813 24.86119654 -23.03988647 21.23078918 C-20.48891204 19.4838285 -17.88607813 18.00634505 -15.17416382 16.52644348 C-12.40656527 13.99059114 -12.40656527 13.99059114 -10.29916382 11.46394348 C-9.60049194 10.66859192 -8.90182007 9.87324036 -8.18197632 9.05378723 C-6.04472215 6.56422659 -6.04472215 6.56422659 -4.71566772 3.40510559 C-2.17416382 0.52644348 -2.17416382 0.52644348 0 0 Z " fill="#FDFDFD" transform="translate(472.1741638183594,737.4735565185547)"/>
<path d="M0 0 C7.40526472 4.4453927 12.97890863 9.88297566 15.83984375 18.1796875 C16.58984375 21.5546875 16.58984375 21.5546875 16.58984375 25.5546875 C-6.18015625 25.5546875 -28.95015625 25.5546875 -52.41015625 25.5546875 C-51.13020547 15.31508127 -48.55465772 9.04716027 -40.41015625 2.5546875 C-28.22278042 -5.01232922 -12.98228433 -6.30415453 0 0 Z " fill="#FCFCFC" transform="translate(1595.41015625,1032.4453125)"/>
<path d="M0 0 C2.93453261 0.36681658 3.86437246 0.86437246 6 3 C6.103125 3.825 6.20625 4.65 6.3125 5.5 C6.6528125 6.7375 6.6528125 6.7375 7 8 C8.65697379 8.69040574 10.3255761 9.3530635 12 10 C16.74421612 14.42793505 16.74421612 14.42793505 17.34765625 18.13671875 C17.375 20.3125 17.375 20.3125 17 24 C16 25 16 25 13.4375 25.0625 C12.633125 25.041875 11.82875 25.02125 11 25 C10.54625 23.865625 10.0925 22.73125 9.625 21.5625 C8.42904194 17.95278308 8.42904194 17.95278308 6 17 C4.50243129 16.90500497 3.00057068 16.87012802 1.5 16.875 C0.7059375 16.87242187 -0.088125 16.86984375 -0.90625 16.8671875 C-3.05918534 16.86722004 -3.05918534 16.86722004 -5 18 C-5.16681109 20.91652174 -5.16681109 20.91652174 -5 24 C-2.35159323 26.64840677 -0.93688754 26.25577229 2.75 26.375 C8.14695245 26.7373853 10.977353 27.40078952 15 31 C17.97861692 35.46792538 17.73309522 39.76360556 17 45 C15.30024248 48.56808603 13.06214012 50.60478507 9.3125 52 C8.1678125 52.495 8.1678125 52.495 7 53 C5.76242123 55.96260526 5.76242123 55.96260526 5 59 C4.34 59.66 3.68 60.32 3 61 C-0.53571429 60.46428571 -0.53571429 60.46428571 -2 59 C-2.04080783 57.00041636 -2.04254356 54.99954746 -2 53 C-2.721875 52.9175 -3.44375 52.835 -4.1875 52.75 C-7.65933017 51.82417862 -9.43193768 50.49865523 -12 48 C-13.81927308 44.62134999 -14.41336221 41.82360045 -14 38 C-12 36 -12 36 -9.5625 35.9375 C-7 37 -7 37 -5.1875 40.5625 C-4.795625 41.696875 -4.40375 42.83125 -4 44 C-2.20866022 44.05391993 -0.41686101 44.09275571 1.375 44.125 C2.87160156 44.15980469 2.87160156 44.15980469 4.3984375 44.1953125 C7.16262173 44.27216848 7.16262173 44.27216848 9 42 C9.16681109 38.91652174 9.16681109 38.91652174 9 36 C5.8729219 34.95764063 3.52863178 34.8998747 0.25 34.8125 C-5.12148756 34.41533547 -7.94829984 33.29337387 -11.79296875 29.5703125 C-14.23424521 26.39428293 -14.33857983 22.96092854 -14.28125 19.0625 C-13.81163806 15.61867908 -12.22860816 13.59000408 -10 11 C-7.01106771 8.81297638 -5.72055546 8 -2 8 C-2.04125 7.05125 -2.0825 6.1025 -2.125 5.125 C-2 2 -2 2 0 0 Z " fill="#060606" transform="translate(544,745)"/>
</svg>
